<svg width="80" height="71" viewBox="0 0 80 71" fill="none" xmlns="http://www.w3.org/2000/svg">
<path d="M6.72 66.512C7.184 66.608 7.416 66.968 7.416 67.592C7.416 67.928 7.336 68.192 7.176 68.384C7.016 68.576 6.808 68.672 6.552 68.672C6.472 68.672 6.32 68.664 6.096 68.648C5.872 68.616 5.632 68.592 5.376 68.576C5.12 68.544 4.872 68.52 4.632 68.504C4.392 68.472 4.224 68.456 4.128 68.456C4.032 68.456 3.944 68.456 3.864 68.456C3.784 68.456 3.704 68.464 3.624 68.48C3.352 68.464 3.032 68.432 2.664 68.384C2.312 68.32 1.96 68.256 1.608 68.192C1.272 68.112 0.968 68.032 0.696 67.952C0.44 67.872 0.288 67.8 0.24 67.736C0.08 67.256 0 66.616 0 65.816C0 65.688 0 65.56 0 65.432C0 65.288 0.00799996 65.144 0.0239999 65L0.168 63.296C0.184 63.168 0.192 63.048 0.192 62.936C0.192 62.808 0.192 62.696 0.192 62.6C0.192 62.472 0.192 62.368 0.192 62.288C0.192 62.192 0.176 62.104 0.144 62.024C0.256 61.416 0.336 60.912 0.384 60.512C0.432 60.096 0.456 59.776 0.456 59.552V59.36C0.456 59.136 0.552 58.424 0.744 57.224C0.984 56.712 1.352 56.456 1.848 56.456C2.152 56.456 2.408 56.576 2.616 56.816C2.824 57.04 2.928 57.352 2.928 57.752C2.864 57.976 2.8 58.256 2.736 58.592C2.688 58.928 2.64 59.328 2.592 59.792V59.984C2.592 60.128 2.576 60.352 2.544 60.656C2.528 60.944 2.504 61.248 2.472 61.568C2.44 61.872 2.408 62.152 2.376 62.408C2.36 62.648 2.352 62.784 2.352 62.816C2.352 62.992 2.36 63.104 2.376 63.152C2.312 63.824 2.264 64.384 2.232 64.832C2.2 65.28 2.184 65.624 2.184 65.864C2.184 66.024 2.192 66.128 2.208 66.176C3.04 66.272 3.592 66.32 3.864 66.32C3.992 66.32 4.12 66.32 4.248 66.32C4.392 66.304 4.536 66.296 4.68 66.296C5.288 66.296 5.968 66.368 6.72 66.512Z" fill="#E621A1"/>
<path d="M16.3984 68.864C16.1904 69.008 15.8544 69.152 15.3904 69.296C14.9264 69.424 14.4464 69.536 13.9504 69.632L12.9664 69.44C12.8224 69.392 12.5824 69.28 12.2464 69.104C11.9264 68.928 11.5984 68.664 11.2624 68.312C10.9264 67.944 10.6304 67.48 10.3744 66.92C10.1184 66.344 9.99037 65.648 9.99037 64.832C9.99037 64.544 10.0544 64.208 10.1824 63.824C10.3264 63.424 10.5344 63.056 10.8064 62.72C11.0784 62.368 11.4144 62.072 11.8144 61.832C12.2304 61.592 12.7104 61.472 13.2544 61.472C14.3424 61.472 15.3264 61.824 16.2064 62.528C16.9744 63.584 17.3584 64.752 17.3584 66.032C17.3584 66.976 17.0384 67.92 16.3984 68.864ZM15.2224 65.456C15.1424 64.832 14.9424 64.344 14.6224 63.992C14.3184 63.624 13.9264 63.44 13.4464 63.44C13.1264 63.44 12.8224 63.6 12.5344 63.92C12.2624 64.224 12.1264 64.672 12.1264 65.264C12.1264 65.504 12.1584 65.76 12.2224 66.032C12.2864 66.288 12.3904 66.528 12.5344 66.752C12.6784 66.96 12.8624 67.136 13.0864 67.28C13.3104 67.408 13.5824 67.472 13.9024 67.472C14.4144 67.472 14.7664 67.32 14.9584 67.016C15.1504 66.696 15.2464 66.304 15.2464 65.84C15.2464 65.776 15.2384 65.72 15.2224 65.672C15.2224 65.608 15.2224 65.536 15.2224 65.456Z" fill="#E621A1"/>
<path d="M28.6354 61.376C28.5874 61.728 28.2434 62.488 27.6034 63.656L26.8834 65.264C26.7394 65.632 26.6114 65.944 26.4994 66.2C26.3874 66.456 26.2834 66.68 26.1874 66.872C26.1074 67.048 26.0194 67.208 25.9234 67.352C25.8434 67.48 25.7554 67.608 25.6594 67.736C25.5794 67.928 25.4674 68.128 25.3234 68.336C25.1794 68.528 25.0114 68.712 24.8194 68.888C24.6274 69.064 24.4194 69.208 24.1954 69.32C23.9714 69.432 23.7394 69.488 23.4994 69.488C22.8274 69.488 22.3474 69.064 22.0594 68.216C21.8834 68.024 21.7154 67.776 21.5554 67.472C21.3954 67.168 21.2514 66.872 21.1234 66.584C21.0114 66.296 20.9154 66.048 20.8354 65.84C20.7554 65.616 20.7074 65.488 20.6914 65.456C20.4994 65.056 20.4034 64.584 20.4034 64.04V63.848C20.0994 63.08 19.9474 62.376 19.9474 61.736C19.9474 61.432 20.0674 61.208 20.3074 61.064C20.5634 60.92 20.8514 60.848 21.1714 60.848C21.3634 60.848 21.5154 60.896 21.6274 60.992C21.7554 61.072 21.8514 61.2 21.9154 61.376C21.9954 61.536 22.0594 61.736 22.1074 61.976C22.1554 62.216 22.2114 62.488 22.2754 62.792C22.3874 63.32 22.4834 63.76 22.5634 64.112C22.6594 64.464 22.7554 64.776 22.8514 65.048C22.9634 65.32 23.0914 65.592 23.2354 65.864C23.3794 66.12 23.5634 66.424 23.7874 66.776C24.1874 66.328 24.4594 65.8 24.6034 65.192C24.7154 64.984 24.8034 64.784 24.8674 64.592C24.9474 64.384 25.0514 64.12 25.1794 63.8C25.3074 63.48 25.4914 63.072 25.7314 62.576C25.9714 62.064 26.3234 61.408 26.7874 60.608C26.9634 60.384 27.1794 60.272 27.4354 60.272C27.7234 60.272 27.9954 60.384 28.2514 60.608C28.5074 60.832 28.6354 61.064 28.6354 61.304V61.376Z" fill="#E621A1"/>
<path d="M39.5589 68.504C39.0469 69.016 38.4709 69.448 37.8309 69.8C37.1909 70.168 36.5429 70.352 35.8869 70.352C35.2949 70.352 34.5349 70.256 33.6069 70.064C33.2869 69.856 32.9669 69.608 32.6469 69.32C32.3269 69.016 32.0389 68.688 31.7829 68.336C31.5269 67.968 31.3189 67.576 31.1589 67.16C30.9989 66.728 30.9189 66.288 30.9189 65.84C30.9189 65.712 30.9269 65.544 30.9429 65.336C30.9589 65.112 30.9749 64.896 30.9909 64.688C31.0229 64.464 31.0469 64.272 31.0629 64.112C31.0789 63.952 31.0869 63.872 31.0869 63.872C31.4069 63.36 31.7429 62.856 32.0949 62.36C32.4629 61.848 32.9749 61.4 33.6309 61.016C34.6709 60.792 35.4229 60.68 35.8869 60.68C36.1269 60.68 36.3349 60.696 36.5109 60.728C36.6869 60.744 36.8549 60.792 37.0149 60.872C37.1909 60.936 37.3589 61.04 37.5189 61.184C37.6949 61.328 37.8949 61.512 38.1189 61.736C38.3749 62.008 38.5749 62.192 38.7189 62.288C38.8789 62.384 38.9589 62.472 38.9589 62.552C38.9589 64.024 38.5029 65.024 37.5909 65.552C37.1909 65.696 36.6709 65.856 36.0309 66.032C35.3909 66.192 34.5189 66.344 33.4149 66.488C33.6389 67.096 33.9349 67.552 34.3029 67.856C34.6709 68.16 35.0869 68.312 35.5509 68.312C36.2389 68.312 37.1029 67.904 38.1429 67.088C38.3029 66.944 38.5029 66.872 38.7429 66.872C38.9989 66.872 39.2229 66.968 39.4149 67.16C39.6229 67.352 39.7269 67.592 39.7269 67.88C39.7269 68.088 39.6709 68.296 39.5589 68.504ZM36.8469 63.368C36.5429 62.872 36.1829 62.624 35.7669 62.624C35.5909 62.624 35.3989 62.648 35.1909 62.696C34.9829 62.744 34.7669 62.816 34.5429 62.912C34.3349 62.992 34.1349 63.096 33.9429 63.224C33.7669 63.352 33.6229 63.504 33.5109 63.68L33.2709 64.4C33.8149 64.352 34.2949 64.312 34.7109 64.28C35.1269 64.248 35.4869 64.2 35.7909 64.136C36.0949 64.072 36.3349 63.984 36.5109 63.872C36.6869 63.76 36.7989 63.592 36.8469 63.368Z" fill="#E621A1"/>
<path d="M46.4119 56.84C46.3799 57.24 46.2839 57.696 46.1239 58.208C45.9799 58.704 45.8759 59.112 45.8119 59.432V59.72C45.8119 59.944 45.7959 60.184 45.7639 60.44C45.7319 60.696 45.6999 60.944 45.6679 61.184C45.6359 61.408 45.5959 61.608 45.5479 61.784C45.5159 61.96 45.4999 62.08 45.4999 62.144C45.4839 62.224 45.4759 62.416 45.4759 62.72C45.4759 63.024 45.4759 63.432 45.4759 63.944V64.232C45.4759 64.552 45.4599 64.832 45.4279 65.072C45.3959 65.312 45.3559 65.528 45.3079 65.72L45.5239 67.52C45.5879 67.696 45.8039 67.96 46.1719 68.312C46.0919 68.6 45.8839 68.864 45.5479 69.104C45.2119 69.328 44.8679 69.44 44.5159 69.44C44.0359 69.44 43.6679 69.216 43.4119 68.768C43.1719 68.304 43.0519 67.536 43.0519 66.464C43.0519 66.288 43.0599 66.136 43.0759 66.008C43.1079 65.88 43.1239 65.72 43.1239 65.528C43.1239 65.144 43.0759 64.664 42.9799 64.088C43.0599 63.912 43.1159 63.688 43.1479 63.416C43.1959 63.144 43.2279 62.888 43.2439 62.648C43.2599 62.392 43.2679 62.176 43.2679 62C43.2679 61.824 43.2679 61.752 43.2679 61.784C43.2679 61.8 43.2839 61.688 43.3159 61.448C43.3639 61.208 43.4119 60.928 43.4599 60.608C43.5079 60.272 43.5479 59.928 43.5799 59.576C43.6279 59.224 43.6519 58.944 43.6519 58.736V58.544L44.0599 56.528C44.2679 56.176 44.6279 56 45.1399 56C45.6999 56 46.1239 56.28 46.4119 56.84Z" fill="#E621A1"/>
<path d="M58.5501 66.632C58.8381 66.824 58.9821 67.056 58.9821 67.328C58.9821 67.472 58.9421 67.624 58.8621 67.784C58.7821 67.928 58.6781 68.064 58.5501 68.192C58.4221 68.304 58.2861 68.4 58.1421 68.48C57.9981 68.56 57.8541 68.6 57.7101 68.6C57.5821 68.552 57.4301 68.472 57.2541 68.36C57.0781 68.232 56.9021 68.096 56.7261 67.952C56.5501 67.792 56.3821 67.616 56.2221 67.424C56.0781 67.232 55.9661 67.04 55.8861 66.848L55.7181 67.256C55.4141 67.832 54.9341 68.376 54.2781 68.888C53.4781 69.032 53.0141 69.104 52.8861 69.104C52.5821 69.104 52.2141 69.056 51.7821 68.96L50.4621 68.024C49.8861 67.48 49.5981 66.736 49.5981 65.792C49.5981 65.456 49.6461 65.088 49.7421 64.688C49.8541 64.272 50.0061 63.856 50.1981 63.44C50.4061 63.024 50.6541 62.616 50.9421 62.216C51.2301 61.816 51.5661 61.456 51.9501 61.136C52.4141 60.96 52.8621 60.816 53.2941 60.704C53.7261 60.576 54.0541 60.496 54.2781 60.464C54.5821 60.128 54.9421 59.96 55.3581 59.96C55.5981 59.96 55.8061 60.08 55.9821 60.32C56.1741 60.544 56.3341 60.832 56.4621 61.184C56.6061 61.536 56.7181 61.928 56.7981 62.36C56.8781 62.776 56.9341 63.176 56.9661 63.56L57.2781 64.832C57.3741 65.232 57.5261 65.576 57.7341 65.864C57.9581 66.152 58.2301 66.408 58.5501 66.632ZM54.9021 63.968C54.8701 63.952 54.7501 63.448 54.5421 62.456C54.4621 62.456 54.3421 62.456 54.1821 62.456C54.0221 62.456 53.8301 62.504 53.6061 62.6C53.3981 62.68 53.1661 62.832 52.9101 63.056C52.6701 63.264 52.4381 63.584 52.2141 64.016C51.8781 64.64 51.7101 65.264 51.7101 65.888C51.9821 66.416 52.4061 66.832 52.9821 67.136C53.1581 67.088 53.3021 67.032 53.4141 66.968C53.5421 66.904 53.6541 66.816 53.7501 66.704C53.8461 66.592 53.9341 66.456 54.0141 66.296C54.1101 66.12 54.2141 65.904 54.3261 65.648C54.5341 65.28 54.6781 64.96 54.7581 64.688C54.8541 64.4 54.9021 64.16 54.9021 63.968Z" fill="#E621A1"/>
<path d="M68.7937 67.16C68.4897 67.8 67.9938 68.312 67.3057 68.696C66.6178 69.064 65.8497 69.248 65.0017 69.248C64.8897 69.248 64.7057 69.232 64.4498 69.2C64.1938 69.168 63.9058 69.104 63.5858 69.008C63.2817 68.912 62.9618 68.784 62.6258 68.624C62.3058 68.448 62.0098 68.224 61.7378 67.952C61.4658 67.664 61.2417 67.32 61.0658 66.92C60.8898 66.52 60.8018 66.048 60.8018 65.504C60.7858 64.784 60.8817 64.128 61.0897 63.536C61.3137 62.944 61.6658 62.344 62.1458 61.736L62.9137 60.752C63.8097 60.144 64.8177 59.84 65.9378 59.84C66.5458 59.84 67.0258 59.952 67.3778 60.176C67.7458 60.4 67.9297 60.72 67.9297 61.136C67.9297 61.456 67.8097 61.72 67.5697 61.928C67.3457 62.12 67.0497 62.216 66.6817 62.216C66.6657 62.216 66.6018 62.208 66.4898 62.192C66.3938 62.16 66.2817 62.128 66.1537 62.096C66.0257 62.064 65.8978 62.04 65.7698 62.024C65.6418 61.992 65.5378 61.976 65.4577 61.976C65.0898 61.976 64.6658 62.168 64.1858 62.552C63.7218 62.936 63.3537 63.544 63.0817 64.376C62.9697 64.728 62.9137 65.016 62.9137 65.24C62.9137 65.688 63.0337 66.04 63.2738 66.296C63.5298 66.552 63.8097 66.752 64.1137 66.896C64.4177 67.024 64.6978 67.112 64.9538 67.16C65.2097 67.192 65.3457 67.208 65.3617 67.208C65.5857 67.208 65.8098 67.144 66.0338 67.016C66.2578 66.888 66.4577 66.744 66.6338 66.584C66.8258 66.424 66.9778 66.288 67.0898 66.176C67.2018 66.048 67.2497 65.984 67.2337 65.984C67.3938 65.84 67.5778 65.768 67.7858 65.768C68.0417 65.768 68.2738 65.904 68.4818 66.176C68.7057 66.432 68.8177 66.696 68.8177 66.968C68.8177 67.048 68.8097 67.112 68.7937 67.16Z" fill="#E621A1"/>
<path d="M79.6839 68.504C79.1719 69.016 78.5959 69.448 77.9559 69.8C77.3159 70.168 76.6679 70.352 76.0119 70.352C75.4199 70.352 74.6599 70.256 73.7319 70.064C73.4119 69.856 73.0919 69.608 72.7719 69.32C72.4519 69.016 72.1639 68.688 71.9079 68.336C71.6519 67.968 71.4439 67.576 71.2839 67.16C71.1239 66.728 71.0439 66.288 71.0439 65.84C71.0439 65.712 71.0519 65.544 71.0679 65.336C71.0839 65.112 71.0999 64.896 71.1159 64.688C71.1479 64.464 71.1719 64.272 71.1879 64.112C71.2039 63.952 71.2119 63.872 71.2119 63.872C71.5319 63.36 71.8679 62.856 72.2199 62.36C72.5879 61.848 73.0999 61.4 73.7559 61.016C74.7959 60.792 75.5479 60.68 76.0119 60.68C76.2519 60.68 76.4599 60.696 76.6359 60.728C76.8119 60.744 76.9799 60.792 77.1399 60.872C77.3159 60.936 77.4839 61.04 77.6439 61.184C77.8199 61.328 78.0199 61.512 78.2439 61.736C78.4999 62.008 78.6999 62.192 78.8439 62.288C79.0039 62.384 79.0839 62.472 79.0839 62.552C79.0839 64.024 78.6279 65.024 77.7159 65.552C77.3159 65.696 76.7959 65.856 76.1559 66.032C75.5159 66.192 74.6439 66.344 73.5399 66.488C73.7639 67.096 74.0599 67.552 74.4279 67.856C74.7959 68.16 75.2119 68.312 75.6759 68.312C76.3639 68.312 77.2279 67.904 78.2679 67.088C78.4279 66.944 78.6279 66.872 78.8679 66.872C79.1239 66.872 79.3479 66.968 79.5399 67.16C79.7479 67.352 79.8519 67.592 79.8519 67.88C79.8519 68.088 79.7959 68.296 79.6839 68.504ZM76.9719 63.368C76.6679 62.872 76.3079 62.624 75.8919 62.624C75.7159 62.624 75.5239 62.648 75.3159 62.696C75.1079 62.744 74.8919 62.816 74.6679 62.912C74.4599 62.992 74.2599 63.096 74.0679 63.224C73.8919 63.352 73.7479 63.504 73.6359 63.68L73.3959 64.4C73.9399 64.352 74.4199 64.312 74.8359 64.28C75.2519 64.248 75.6119 64.2 75.9159 64.136C76.2199 64.072 76.4599 63.984 76.6359 63.872C76.8119 63.76 76.9239 63.592 76.9719 63.368Z" fill="#E621A1"/>
<path d="M29 9.78947V14.3158H24.6V16.5789H29V21.1053H31.2V16.5789H35.6V14.3158H31.2V9.78947H29Z" fill="#E621A1"/>
<path d="M51 12.0526C51 13.3025 50.015 14.3158 48.8 14.3158C47.585 14.3158 46.6 13.3025 46.6 12.0526C46.6 10.8027 47.585 9.78947 48.8 9.78947C50.015 9.78947 51 10.8027 51 12.0526Z" fill="#E621A1"/>
<path d="M53.2 18.8421C53.2 20.092 52.215 21.1053 51 21.1053C49.785 21.1053 48.8 20.092 48.8 18.8421C48.8 17.5922 49.785 16.5789 51 16.5789C52.215 16.5789 53.2 17.5922 53.2 18.8421Z" fill="#E621A1"/>
<path fill-rule="evenodd" clip-rule="evenodd" d="M53.6084 29.0263L40 46L26.3916 29.0263C22.6316 25.6316 18 20.8306 18 15.4474C18 8.57288 23.0656 3 30.1 3C33.6921 3 37.5738 4.45324 39.8893 6.79094C39.9265 6.82843 39.9633 6.86615 40 6.90409C40.0367 6.86615 40.0735 6.82844 40.1107 6.79095C42.4262 4.45324 46.3079 3 49.9 3C56.9344 3 62 8.57288 62 15.4474C62 20.8306 57.3684 25.6316 53.6084 29.0263ZM29.294 25.6244L29.5605 25.865L40 38.8861L50.4395 25.865L50.706 25.6244C52.5209 23.9858 54.3233 22.2009 55.6585 20.3164C57.009 18.4104 57.6 16.7962 57.6 15.4474C57.6 11.2887 54.7197 7.52632 49.9 7.52632C47.435 7.52632 44.6265 8.53622 43.121 10.0946L40 13.3254L36.879 10.0946C35.3735 8.53622 32.565 7.52632 30.1 7.52632C25.2803 7.52632 22.4 11.2887 22.4 15.4474C22.4 16.7962 22.991 18.4104 24.3415 20.3164C25.6767 22.2009 27.4791 23.9858 29.294 25.6244Z" fill="#E621A1"/>
<path d="M56.7799 32.184C57.4159 31.6048 58.0937 30.9692 58.7829 30.2823L59.0916 31.7908C59.4853 33.7145 59.6838 35.6751 59.6838 37.6411V42.0343C59.6838 43.1214 59.25 44.1607 58.4839 44.9094L58.0973 45.2873C57.629 45.7449 57.0079 46 56.362 46C55.541 46 54.7714 45.5884 54.2998 44.897L50.7543 39.6997L56.7799 32.184Z" fill="#E621A1"/>
<path d="M23.2195 32.184L29.2451 39.6996L25.6996 44.897C25.2279 45.5884 24.4584 46 23.6373 46C22.9915 46 22.3703 45.7449 21.9021 45.2873L21.5154 44.9094C20.7493 44.1607 20.3156 43.1214 20.3156 42.0343V37.6411C20.3156 35.6751 20.514 33.7145 20.9077 31.7908L21.2164 30.2823C21.9056 30.9692 22.5835 31.6048 23.2195 32.184Z" fill="#E621A1"/>
</svg>
